<svg xmlns="http://www.w3.org/2000/svg" viewBox="0 0 271.7 364.3"><path d="M38 .5c-.4.5-4.3 13-6.7 21.6-10.2 36.4-10 55.6.8 77 4.4 9 9.3 16.3 24 36.3 11 14.9 16.5 23.7 15.5 24.6l-2.7 1C22.2 173.8-7.5 224.4 1.7 275.3 9.3 318 44.5 352.6 89 361.6c51.5 10.3 101.8-9.2 142.3-55A167.9 167.9 0 0 0 271.7 197C271.7 89.2 179.1 7.5 49.1.4 39.6-.1 38.5-.1 38 .4m21.7 10 7.4.8c15 1.6 34.4 5.5 49.4 10 65.2 19.4 113 60.4 134.7 115.6 16.4 41.7 15.3 78.8-2.9 99.9-15.4 17.8-47.4 25.1-72.8 16.6-4-1.3-3.8-.8-2.4-8 7.2-37-22.7-77.7-63.4-86-8-1.7-23.3-2.3-28.3-1.1-1 .2-1.1 0-3.7-5-3.8-7.5-9-15.3-19-28.6C27.4 82.9 26 71.6 43.4 13.2l1-3.7 5.9.2 9.4.7m33 155.8c8.1 2 15 7.8 19.3 16.4 3.4 6.8 6.5 20.4 4.5 19.6-1.2-.5-7-2.1-8.6-2.4-1.3-.2-1.6-.6-3.4-3.7a69.7 69.7 0 0 0-28-27c-4-2-4-2.1-1.4-2.7a42.7 42.7 0 0 1 17.6-.2m21.4 1.2c17.6 5 23.6 19.3 19 45-.3 2.3-.1 2.3-4.9-2.3l-4-3.9-.3-4.2a65 65 0 0 0-11.4-31.4c-3.3-5-3.5-4.7 1.6-3.2m-41.6 7c8.3 2.9 16.5 10.1 23.5 20.8 2.8 4.1 2.8 4.2.2 4.6a49 49 0 0 0-5.5 1.2l-3.3 1-2.3-2.3c-9.7-10-21-15.7-38.3-19.5-1.3-.3-1.1-.7 1.2-2.1a30 30 0 0 1 24.5-3.8m71.4 10.1c10 10 8.3 29-3.7 40.7l-1.4 1.3-.7-1.8c-.6-1.6-.6-2.1-.2-3.6 3.3-11.8 3.8-30 1-40-.4-1.2 1.8.2 5 3.4m-91 3.8a49 49 0 0 1 24.9 13.6c3.5 3.2 3.4 3 .8 4.6l-4.4 3.2-2.3 1.9-3.4-2a63.9 63.9 0 0 0-41.2-8.1c-3.8.7-3.8.7-2-1.7 6.9-9.1 17-13.4 27.5-11.5M160 205.4c4.9 9.5 1.7 19-9 27-4 3-9.8 6-10.3 5.1-1.1-1.7-.5-3.2 2.6-6.1a55.1 55.1 0 0 0 13.6-27c.8-3.4 1-3.4 3.1 1m-54 1.6c3.3 1.5 3.6 6.3 1 12.8-2.8 6.5-3.7 6.3-4-.7-.2-4.3-.7-7-2.1-11.8-.4-1.2 3-1.3 5.2-.3m-57.8 1.5c7 1.8 19.2 7.3 18.5 8.4l-2 2.9c-.9 1.3-2 3.3-2.7 4.5-1.2 2.4-.9 2.4-6 1-15-3.7-29-1-43.3 8.7-3.5 2.4-3.6 2.2-1.5-4.3 6-18.2 19.2-25.8 37-21.2m44.3 1.8c2.2 1.6 3.8 7 3.6 12-.1 3.6-.5 3.4-3.4-1a49 49 0 0 0-5.7-6.7c-3.7-3.6-3.5-3.2-1.9-4 3-1.6 5.4-1.7 7.4-.3m25.3.4c5.4 3.1 4 10-3 15.3-3.1 2.3-4.5 2-3-.7a50 50 0 0 0 3.4-11.4c.8-4.2.9-4.3 2.6-3.2m-36.3 8c2.4 1.7 7.5 8.5 7.5 10.1 0 1.6-.9 1.5-3.7-.3-3.1-2-7.5-4.1-10.9-5.2-2.8-.9-3-1.4-1.6-3 3-3 5.6-3.5 8.7-1.5m48.5 5.9c1.7 5.5-3.2 9.7-11.3 9.7-3.5 0-3.6-.4-.8-2.2 4.2-2.7 9.9-9 10-11 0-1.2 1.5 1.3 2.1 3.5m36.8 2.7c1.3 10.3-2.3 17-10.6 19.4-5 1.4-17.6 2.6-17.6 1.6 0-1.6 1.2-3 2.8-3.6 8.3-2.4 19-10.4 23.2-17.3 1.7-2.9 1.9-2.9 2.2 0m-92.2 2.8c6 2.1 13 8.4 8.4 7.6l-4.8-1c-2.8-.4-5.1-.6-8.7-.4-5.4.2-5.3.3-4.2-2.6 1.5-4.3 4.4-5.4 9.3-3.6m-26 .3c3.2.4 9 2 9.5 2.4l-1.4 9-.3 1.4-3.2.3c-18.5 1.6-37.4 13.7-43.8 28-1.1 2.4-1.6.4-1.6-6.5 0-23.9 16.9-38.2 40.7-34.6m58.5 3.2c1.2 1.2 1.2 3.2 0 5-1.2 1.7-1.4 1.5-2.1-1.7l-1-3.9c-.3-1.2 1.6-.9 3 .6m26.4 4.6c-.6 6.6-6 8.5-13.9 5-4-2-4-2 .5-2.5 4.5-.6 8.2-1.8 10.9-3.5 2.7-1.8 2.7-1.8 2.5 1M98.2 237c1 .6 2.7 3.3 2.4 3.6a8 8 0 0 1-2.5-.4c-1.3-.4-3.1-.6-4-.6-2.3 0-2.6-.7-1-2 1.4-1.4 3.7-1.6 5-.6m158 10.6c-7.6 22-18.2 34.2-34.5 39.5-20.2 6.6-45.7.8-58.6-13.5l-1.5-1.6 1.8-2.7c1-1.5 2.7-4.6 3.9-6.8 2.3-4.7 1.9-4.5 6.3-3 16.7 5.8 35.4 6 52.2.4 7.7-2.5 23.7-11.4 30.2-16.8 2-1.7 2-1.2.1 4.5M79 243.7c5.5 1.6 5.8 2.5 1 3.5-4.2 1-8.7 2.7-12.4 5-3.6 2-3.6 2-3.6-1.5 0-7.2 5.2-9.6 15-7m19.4 2.1c.1.1-.3.6-1 1l-3.1 2.8c-2.2 2.2-2.4 2.2-3.1.1-1-3 .8-4.7 4.8-4.3l2.4.4m18.7 3.5c3.1 1.3 7.2 2.3 10 2.3 2.6 0 2.7.4.5 2.4-4.1 4-9.7 2-13-4.3-.8-1.6-.5-1.6 2.5-.4m-60.5 1 .8 4.2 1.2 5.6c.9 2.9.9 2.9-2 3.8-18 6.1-30 20.6-33.9 40.7-.4 2.5-1 4.5-1.1 4.3-.7-.8-3.6-6.6-4.5-9.3-8.5-23.8 6.4-44.7 34.9-49 4.4-.7 4.3-.7 4.6-.2m108.4.5c-2.1 7-7.7 11-15 10.5-4.8-.2-15.6-3-15.6-4 0-1.4.9-1.8 3.5-1.8a71 71 0 0 0 25.7-5.2c1-.7 1.7-.5 1.4.5m-63.3 2.3-.2 4c0 4.1 0 4.3-2 3-1.8-1.2-2.6-3-1.9-4.3 1-2 4.5-4.3 4-2.7m-16.4.7c0 .4-.9 1.2-2.3 2-4.2 2.5-12.1 11.5-12.1 13.7 0 1.2-1.3 0-2-1.8-3-8 1.3-12.8 12.2-14.2 4.2-.5 4.2-.5 4.2.3m24.8 1.2c.6 1 2.1 3 3.5 4.4 2.8 3 2.8 3 .5 3.4-4 .5-6-1.3-6-5.8 0-4.4.5-4.9 2-2m-20 6.3c0 .4-.5 1.4-1.2 2.4-3 4.4-5.2 10-6.3 16.3-.7 4.4-.7 4.4-2.6 2.3-4.7-5.2-4.1-11.1 1.6-16.8 4.4-4.4 8.5-6.4 8.5-4.2m47.3 4.2c5 1.3 9.4 2 14.2 2.2 5.1.3 5 .3 2.8 2.4-4.4 4.3-9.5 4.7-16.5 1.2-9-4.4-14-10.5-6.3-7.6 1.5.5 4 1.4 5.8 1.8m-40.7 1c.7.4.7.6-.4 4.2a53.9 53.9 0 0 0-1 18.4c.5 2.5.4 2.6-1.3 2-7-3-7.7-12.7-1.6-21.4 2.7-3.9 3.1-4.2 4.3-3.3m28.5 3.3a41 41 0 0 0 16.6 9c3.8 1 4 1.3 1.7 2.8-7.2 5-14.8 1.4-21.2-9.8-2.7-4.9-1.5-5.7 3-2m-62.2 2c.7 1.3 2.1 3.8 3.3 5.5 2.6 4 2.7 3.4-1.3 5.8-15.3 9.4-22.2 27.9-18.3 48.9 1 4.9 1 4.8-1 3.5-23.7-15.7-19.5-49.3 7.6-62.8 7.5-3.8 8.1-3.8 9.7-.8m41.9-.3c1 5.5 1.3 7.2 2.1 9.6 1.3 3.9 3.1 7.5 5 10 2.1 2.8 2.1 3-1.1 2.6-8.8-.8-11.9-7.4-9-18.8 1.6-6 2.4-7 3-3.4m9.6 0a46.2 46.2 0 0 0 14.4 16.5c1.9 1 1.9 1.2-.1 2-8.6 3.5-15-3-17-17.4-.5-3.3 1.2-3.9 2.7-1m46.2 8.7a63 63 0 0 0 63.5 13c4-1.2 5.8-2 10.1-3.7 3.5-1.5-11.1 15.1-17.4 19.7-22.5 16.8-55 9.1-69.8-16.4-2.3-4-2.3-3.8 0-5.4 1-.7 3.8-3.3 6.1-5.6a186 186 0 0 1 4.3-4.4l3.2 2.8m-85 7.8c1.1 1 3 2.5 4.2 3.3 2.5 1.8 2.5 1.8.4 5.2-11.4 17.6-12 36.1-1.5 52.6 2.3 3.7 2 3.7-6 .6-25.9-10.2-27.3-48.6-2.3-62.4 2.7-1.5 2.8-1.4 5.2.7m64.9 6.5c9 18.7 29.4 31 52.1 31l7.7.1c0 .3-8.2 6.2-10.8 7.8-28.6 17.7-58.8 3.3-62-29.6-.7-5.9-.7-5.8 3.4-7.4 1.8-.6 4.3-1.7 5.6-2.4 2.8-1.5 3-1.5 4 .5M92.2 298l5.6 1.6c2.4.5 2.4.5 1.3 3.9a49.5 49.5 0 0 0 6.5 42.8 72.4 72.4 0 0 0 9.9 10.5c0 .9-8 .2-13.7-1.2-21.5-5.4-29.9-27.3-19.1-49.8 1.6-3.4 5.2-9 5.7-9l3.8 1.2m28.6 6.3c1.5 23.6 14.7 38.7 38.5 44.2 1.6.4 1 .8-3.2 2.2-24.1 8-43 1.2-50.2-18-3-8.2-3-20.2.3-29.5l.8-2.2 5.3-.3a38.1 38.1 0 0 0 7-.6h1.2l.3 4.2"/></svg>