<svg xmlns="http://www.w3.org/2000/svg" viewBox="0 0 150 150" version="1.0"><path fill="#42b983" d="M62.3 1.1a73.5 73.5 0 00-37.7 19.5A70 70 0 002 74.6c0 6.2.4 11.5.9 11.8L23 78.7v-6.2c.6-23.3 16-43.5 38.4-50.1 2.8-.8 8.7-1.4 13.1-1.4 14.9 0 25.3 4.4 36 15.4A50.7 50.7 0 01126 74c0 9-2.1 18.2-5.5 25-1 1.7-1.8 3.5-2.5 5.3 0 .6 9 6.2 13.7 8.6l4.2 2.1 2.7-4.5a82.1 82.1 0 003.4-64.1c-3.5-9.1-9-17.4-16-24.2A71.5 71.5 0 0062.3 1.1z"/><path fill="#35495e" d="M15.3 93.2C8.6 96.1 6 97.7 6 99c0 3 7.7 17.2 12.2 22.7a76.4 76.4 0 0033.9 23.4 84.5 84.5 0 0055.3-4.7l6.9-3.6 4.6 2.5a62.8 62.8 0 0023.6 6.9l6 .3.3-9.6.3-9.6-6.4-.6c-10.9-1-19.2-5.4-40.7-21.3C70.8 84.9 48.9 79 15.3 93.2zm44.9 11.3c4 .8 10.9 3.3 15.3 5.5 8.9 4.4 19.6 12 19.2 13.5-.7 1.9-11.2 4.4-19.3 4.4-9.2.1-16.2-1.7-24.9-6.2-6.6-3.5-17.9-14-17.3-15.9 1-2.9 15.8-3.6 27-1.3z"/></svg>
